<svg width="28" height="28" viewBox="0 0 28 28" fill="none" xmlns="http://www.w3.org/2000/svg">
<path d="M2.39258 2.3916H4.72591L7.82924 16.8816C7.94309 17.4123 8.23836 17.8867 8.66424 18.2231C9.09012 18.5595 9.61997 18.737 10.1626 18.7249H21.5726C22.1036 18.7241 22.6185 18.5421 23.0321 18.2091C23.4457 17.876 23.7334 17.4119 23.8476 16.8933L25.7726 8.22493H5.97424M10.5009 24.4999C10.5009 25.1443 9.97858 25.6666 9.33424 25.6666C8.68991 25.6666 8.16758 25.1443 8.16758 24.4999C8.16758 23.8556 8.68991 23.3333 9.33424 23.3333C9.97858 23.3333 10.5009 23.8556 10.5009 24.4999ZM23.3342 24.4999C23.3342 25.1443 22.8119 25.6666 22.1676 25.6666C21.5232 25.6666 21.0009 25.1443 21.0009 24.4999C21.0009 23.8556 21.5232 23.3333 22.1676 23.3333C22.8119 23.3333 23.3342 23.8556 23.3342 24.4999Z" stroke="white" stroke-width="2" stroke-linecap="round" stroke-linejoin="round"/>
</svg>
