<svg width="26" height="26" viewBox="0 0 26 26" fill="none" xmlns="http://www.w3.org/2000/svg">
<path d="M19.875 6.125H19.8875M6.75 0.5H19.25C22.7018 0.5 25.5 3.29822 25.5 6.75V19.25C25.5 22.7018 22.7018 25.5 19.25 25.5H6.75C3.29822 25.5 0.5 22.7018 0.5 19.25V6.75C0.5 3.29822 3.29822 0.5 6.75 0.5ZM18 12.2125C18.1543 13.2528 17.9766 14.3153 17.4922 15.2488C17.0078 16.1823 16.2414 16.9393 15.302 17.4121C14.3626 17.8849 13.2981 18.0495 12.2597 17.8824C11.2214 17.7153 10.2622 17.2251 9.51855 16.4815C8.7749 15.7378 8.28467 14.7786 8.11758 13.7403C7.9505 12.7019 8.11508 11.6374 8.58791 10.698C9.06073 9.75857 9.81773 8.99218 10.7512 8.5078C11.6847 8.02343 12.7472 7.84574 13.7875 8C14.8487 8.15736 15.8311 8.65183 16.5896 9.41038C17.3482 10.1689 17.8426 11.1513 18 12.2125Z" stroke-linecap="round" stroke-linejoin="round"/>
</svg>
