<svg width="32" height="32" viewBox="0 0 32 32" fill="none" xmlns="http://www.w3.org/2000/svg">
<g clip-path="url(#clip0_96_1267)">
<g filter="url(#filter0_d_96_1267)">
<path d="M23.375 9.625H23.3875M10.25 4H22.75C26.2018 4 29 6.79822 29 10.25V22.75C29 26.2018 26.2018 29 22.75 29H10.25C6.79822 29 4 26.2018 4 22.75V10.25C4 6.79822 6.79822 4 10.25 4ZM21.5 15.7125C21.6543 16.7528 21.4766 17.8153 20.9922 18.7488C20.5078 19.6823 19.7414 20.4393 18.802 20.9121C17.8626 21.3849 16.7981 21.5495 15.7597 21.3824C14.7214 21.2153 13.7622 20.7251 13.0185 19.9815C12.2749 19.2378 11.7847 18.2786 11.6176 17.2403C11.4505 16.2019 11.6151 15.1374 12.0879 14.198C12.5607 13.2586 13.3177 12.4922 14.2512 12.0078C15.1847 11.5234 16.2472 11.3457 17.2875 11.5C18.3487 11.6574 19.3311 12.1518 20.0896 12.9104C20.8482 13.6689 21.3426 14.6513 21.5 15.7125Z" stroke="white" stroke-linecap="round" stroke-linejoin="round" shape-rendering="crispEdges"/>
</g>
</g>
<defs>
<filter id="filter0_d_96_1267" x="-3.3" y="-3.3" width="39.6" height="39.6" filterUnits="userSpaceOnUse" color-interpolation-filters="sRGB">
<feFlood flood-opacity="0" result="BackgroundImageFix"/>
<feColorMatrix in="SourceAlpha" type="matrix" values="0 0 0 0 0 0 0 0 0 0 0 0 0 0 0 0 0 0 127 0" result="hardAlpha"/>
<feOffset/>
<feGaussianBlur stdDeviation="3.4"/>
<feComposite in2="hardAlpha" operator="out"/>
<feColorMatrix type="matrix" values="0 0 0 0 1 0 0 0 0 0.653429 0 0 0 0 0.0548075 0 0 0 1 0"/>
<feBlend mode="normal" in2="BackgroundImageFix" result="effect1_dropShadow_96_1267"/>
<feBlend mode="normal" in="SourceGraphic" in2="effect1_dropShadow_96_1267" result="shape"/>
</filter>
<clipPath id="clip0_96_1267">
<rect width="32" height="32" fill="white"/>
</clipPath>
</defs>
</svg>
