<svg width="28" height="20" viewBox="0 0 28 20" fill="none" xmlns="http://www.w3.org/2000/svg">
<path d="M1.19858 16.5885C0.267141 12.1929 0.267141 7.65085 1.19858 3.25521C1.32096 2.80882 1.55743 2.40197 1.88472 2.07468C2.21201 1.74739 2.61886 1.51093 3.06524 1.38854C10.2165 0.20382 17.514 0.20382 24.6652 1.38854C25.1116 1.51093 25.5185 1.74739 25.8458 2.07468C26.1731 2.40197 26.4095 2.80882 26.5319 3.25521C27.4633 7.65085 27.4633 12.1929 26.5319 16.5885C26.4095 17.0349 26.1731 17.4418 25.8458 17.7691C25.5185 18.0964 25.1116 18.3328 24.6652 18.4552C17.514 19.6402 10.2165 19.6402 3.06524 18.4552C2.61886 18.3328 2.21201 18.0964 1.88472 17.7691C1.55743 17.4418 1.32096 17.0349 1.19858 16.5885Z" stroke="white" stroke-linecap="round" stroke-linejoin="round"/>
<path d="M11.1986 13.9219L17.8652 9.92187L11.1986 5.92187V13.9219Z" stroke-linecap="round" stroke-linejoin="round"/>
</svg>
